<svg xmlns="http://www.w3.org/2000/svg" xmlns:xlink="http://www.w3.org/1999/xlink" width="116" height="97" viewBox="0 0 116 97">
  <defs>
    <clipPath id="clip-Icon_-_">
      <rect width="116" height="97"/>
    </clipPath>
  </defs>
  <g id="Icon_-_" clip-path="url(#clip-Icon_-_)">
    <g id="Componente_23_2" transform="translate(23 13)">
      <g id="Grupo_1770" transform="translate(-15 -9)">
        <g id="Grupo_50" transform="translate(-20.589 -24.773)">
          <g id="Elipse_47" transform="translate(35.589 33.773)" fill="none" stroke="#231f20" stroke-width="2">
            <circle cx="35.5" cy="35.5" r="35.5" stroke="none"/>
            <circle cx="35.5" cy="35.5" r="34.5" fill="none"/>
          </g>
        </g>
      </g>
      <g id="outline" transform="translate(14.001 14)">
        <path id="Trazado_1572" d="M25.4,6a2.4,2.4,0,1,0,2.4,2.4A2.4,2.4,0,0,0,25.4,6Zm0,3.6a1.2,1.2,0,1,1,1.2-1.2A1.2,1.2,0,0,1,25.4,9.6Z" transform="translate(-6.4 -1.6)" fill="#ffea00" stroke="#231f20" stroke-width="1"/>
        <path id="Trazado_1573" d="M35.4,6a2.4,2.4,0,1,0,2.4,2.4A2.4,2.4,0,0,0,35.4,6Zm0,3.6a1.2,1.2,0,1,1,1.2-1.2A1.2,1.2,0,0,1,35.4,9.6Z" transform="translate(-10.4 -1.6)" fill="#ffea00" stroke="#231f20" stroke-width="1"/>
        <path id="Trazado_1574" d="M8.8,27.2H10a1.8,1.8,0,0,0,1.8-1.8V18.2A1.8,1.8,0,0,0,10,16.4V15.115A2.4,2.4,0,0,0,11.714,13.4H13V27.8a.6.6,0,0,0,.6.6h3v2.4H16a.6.6,0,0,0-.6.6v1.8h-.6A1.8,1.8,0,0,0,13,35v2.4a.6.6,0,0,0,.6.6h7.2a.6.6,0,0,0,.6-.6v-6a.6.6,0,0,0-.6-.6h-.6V28.4h3.6v2.4h-.6a.6.6,0,0,0-.6.6v6a.6.6,0,0,0,.6.6h7.2a.6.6,0,0,0,.6-.6V35a1.8,1.8,0,0,0-1.8-1.8h-.6V31.4a.6.6,0,0,0-.6-.6h-.6V28.4h3a.6.6,0,0,0,.6-.6V13.4h1.285A2.4,2.4,0,0,0,34,15.115V16.4a1.8,1.8,0,0,0-1.8,1.8v7.2A1.8,1.8,0,0,0,34,27.2h1.2A1.8,1.8,0,0,0,37,25.4V18.2a1.8,1.8,0,0,0-1.8-1.8V15.115A2.4,2.4,0,1,0,32.285,12.2H31V11a.6.6,0,0,0-.6-.6h-.6V9.2h2.4v-6H29.8V2.6a.6.6,0,0,0-.6-.6H14.8a.6.6,0,0,0-.6.6v.6H11.8v6h2.4v1.2h-.6a.6.6,0,0,0-.6.6v1.2H11.714A2.4,2.4,0,1,0,8.8,15.115V16.4A1.8,1.8,0,0,0,7,18.2v7.2A1.8,1.8,0,0,0,8.8,27.2Zm27-1.8a.6.6,0,0,1-.6.6H34a.6.6,0,0,1-.6-.6v-.6h2.4Zm0-7.2v5.4H33.4V18.2a.6.6,0,0,1,.6-.6h1.2A.6.6,0,0,1,35.8,18.2Zm-1.2-6.6a1.2,1.2,0,1,1-1.2,1.2A1.2,1.2,0,0,1,34.6,11.6ZM29.8,4.4H31V8H29.8ZM20.2,36.8h-6V35a.6.6,0,0,1,.6-.6h5.4Zm0-3.6H16.6V32h3.6Zm-2.4-2.4V28.4H19v2.4Zm6,1.2h3.6v1.2H23.8ZM25,30.8V28.4h1.2v2.4Zm4.2,3.6a.6.6,0,0,1,.6.6v1.8h-6V34.4Zm.6-10.8H28.6V15.2h1.2ZM15.4,3.2H28.6v7.2H15.4ZM13,8V4.4h1.2V8Zm1.2,3.6H29.8V14H28a.6.6,0,0,0-.6.6v9H26.2v-3a4.2,4.2,0,1,0-8.4,0v3H16.6v-9A.6.6,0,0,0,16,14H14.2Zm10.8,9a3,3,0,1,1-3-3,3,3,0,0,1,3,3ZM14.2,15.2h1.2v8.4H14.2Zm0,9.6h4.2a.6.6,0,0,0,.6-.6v-.666a4.187,4.187,0,0,0,6,0V24.2a.6.6,0,0,0,.6.6h4.2v2.4H14.2Zm-6-12A1.2,1.2,0,1,1,9.4,14,1.2,1.2,0,0,1,8.2,12.8Zm0,5.4a.6.6,0,0,1,.6-.6H10a.6.6,0,0,1,.6.6v5.4H8.2Zm0,6.6h2.4v.6a.6.6,0,0,1-.6.6H8.8a.6.6,0,0,1-.6-.6Z" transform="translate(0)" fill="#231f20"/>
        <path id="Trazado_1575" d="M30.8,30a1.8,1.8,0,1,0,1.8,1.8A1.8,1.8,0,0,0,30.8,30Zm0,2.4a.6.6,0,1,1,.6-.6A.6.6,0,0,1,30.8,32.4Z" transform="translate(-8.8 -11.2)" fill="#231f20" stroke="#ffea00" stroke-width="0.6"/>
        <path id="Trazado_1576" d="M25,20h8.4v1.2H25Z" transform="translate(-7.2 -7.2)" fill="#231f20"/>
        <path id="Trazado_1577" d="M33.4,24H25v1.2h8.4Z" transform="translate(-7.2 -8.8)" fill="#231f20"/>
      </g>
      <path id="Trazado_1578" d="M-22.343,15.612l-1.567-1.867,11.86-9.952,1.567,1.867L-13.8,8.441a7.6,7.6,0,0,0-3.168,1.672,4.707,4.707,0,0,0-1.829,2.52Z" transform="translate(16.646 36.352) rotate(-140)" fill="#ffea00"/>
      <path id="Trazado_1579" d="M-19.117,3.567s3.965,3.709,3.736,4.453S-16.765,9.895-17.4,9.241s-3.577-4.117-3.577-4.117Z" transform="translate(30.5 28.069) rotate(-140)" fill="#ffea00"/>
    </g>
  </g>
</svg>
